<?xml version="1.0" standalone="no"?>
<!DOCTYPE svg PUBLIC "-//W3C//DTD SVG 20010904//EN"
 "http://www.w3.org/TR/2001/REC-SVG-20010904/DTD/svg10.dtd">
<svg version="1.0" xmlns="http://www.w3.org/2000/svg"
 width="512.000000pt" height="512.000000pt" viewBox="0 0 512.000000 512.000000"
 preserveAspectRatio="xMidYMid meet">
<metadata>
Created by potrace 1.14, written by Peter Selinger 2001-2017
</metadata>
<g transform="translate(0.000000,512.000000) scale(0.100000,-0.100000)"
fill="#000000" stroke="none">
<path d="M3520 5010 c-93 -68 -212 -150 -220 -150 -4 0 -10 -4 -12 -8 -2 -6
-180 -132 -533 -377 -38 -27 -74 -53 -80 -58 -5 -4 -84 -59 -175 -122 -91 -63
-172 -119 -180 -125 -8 -6 -91 -64 -185 -130 -93 -65 -175 -123 -182 -129 -7
-6 -17 -11 -23 -11 -5 0 -10 -4 -10 -10 0 -5 -5 -10 -11 -10 -6 0 -16 -6 -23
-12 -7 -7 -59 -44 -115 -83 -138 -95 -264 -183 -276 -193 -5 -4 -55 -39 -110
-77 -105 -72 -337 -235 -344 -241 -2 -2 -4 -67 -4 -144 l1 -141 -22 16 c-11 8
-28 18 -36 22 -8 4 -17 9 -20 13 -3 4 -32 25 -66 47 -61 42 -79 43 -109 9 -5
-6 -44 -33 -85 -61 -41 -27 -79 -53 -85 -58 -59 -45 -106 -77 -114 -77 -5 0
-11 -3 -13 -7 -3 -8 -15 -17 -108 -80 -30 -21 -57 -41 -58 -45 -2 -5 -10 -8
-18 -8 -8 0 -14 -4 -14 -8 0 -4 -15 -16 -33 -27 -75 -44 -68 19 -68 -676 0
-343 0 -631 1 -640 0 -15 200 -16 2373 -15 l2372 1 0 1131 0 1132 -93 63 c-52
35 -100 70 -107 77 -8 6 -16 12 -19 12 -3 0 -14 7 -23 15 -10 8 -99 71 -198
140 -99 68 -188 131 -198 138 -9 8 -46 34 -81 58 l-65 44 1 208 c1 114 -1 209
-3 211 -25 21 -222 156 -229 156 -4 0 -10 4 -12 8 -5 14 -337 242 -350 241 -7
0 -24 -8 -38 -19z m148 -248 c53 -38 120 -85 149 -104 l51 -35 -27 -21 c-16
-11 -75 -53 -132 -93 -57 -40 -106 -75 -109 -79 -3 -4 -11 -9 -19 -12 -9 -2
26 -32 85 -73 54 -37 101 -71 104 -75 3 -4 10 -9 15 -11 6 -2 84 -56 173 -119
90 -63 174 -121 188 -128 13 -7 24 -17 24 -23 0 -5 4 -9 10 -9 9 0 106 -64
120 -80 3 -3 55 -38 115 -79 61 -41 112 -77 115 -81 3 -3 31 -23 63 -45 32
-22 61 -43 63 -47 2 -4 -39 -37 -93 -75 -53 -37 -107 -75 -118 -83 -97 -68
-150 -99 -153 -91 -2 6 -10 11 -17 11 -7 0 -15 4 -17 8 -1 5 -39 33 -83 62
-44 30 -89 62 -99 72 -11 10 -25 18 -32 18 -7 0 -14 4 -16 8 -1 4 -39 33 -83
63 -44 29 -82 57 -85 60 -3 3 -34 25 -70 49 -36 24 -67 46 -70 49 -3 3 -25 20
-50 36 -25 17 -106 73 -180 125 -74 53 -150 105 -167 115 -18 11 -33 23 -33
26 0 4 -8 10 -19 14 -10 3 -28 14 -41 25 -21 18 -22 18 -123 -53 -56 -39 -115
-80 -132 -91 -16 -12 -36 -27 -43 -33 -7 -7 -16 -13 -18 -13 -3 0 -39 24 -81
53 -42 28 -83 57 -91 62 -9 6 -22 15 -28 21 -7 6 -35 26 -64 44 -28 18 -48 36
-43 40 4 4 40 29 78 55 57 40 312 218 508 356 23 16 78 54 122 85 44 30 114
79 155 109 41 29 81 54 88 54 7 1 57 -30 110 -67z m-1050 -704 c43 -29 82 -57
89 -63 6 -5 36 -27 67 -48 31 -21 56 -42 56 -46 0 -4 -45 -39 -101 -77 -55
-38 -109 -76 -119 -84 -10 -8 -55 -40 -99 -70 -45 -30 -81 -58 -81 -62 0 -3
51 -42 113 -85 l113 -79 84 58 c47 32 90 61 95 66 6 4 46 32 90 62 44 30 82
58 85 61 3 3 16 12 30 19 17 9 25 10 28 1 2 -6 8 -11 13 -11 6 0 43 -24 84
-54 40 -30 76 -52 79 -49 3 4 6 2 6 -4 0 -6 25 -27 56 -47 31 -21 52 -41 48
-46 -8 -7 -162 -115 -289 -202 -22 -15 -53 -38 -69 -51 l-29 -23 44 -30 c71
-47 244 -168 249 -174 3 -3 48 -34 100 -70 52 -35 97 -68 98 -72 2 -4 8 -8 14
-8 5 0 16 -7 25 -16 18 -17 20 -14 -77 -81 -30 -21 -101 -70 -158 -110 -56
-40 -105 -73 -107 -73 -3 0 -80 53 -172 118 -93 64 -200 140 -240 167 -40 28
-132 92 -205 142 -73 51 -142 99 -152 105 -10 7 -41 30 -67 51 -27 20 -52 37
-56 37 -4 1 -24 14 -43 30 -19 17 -40 30 -46 30 -7 0 -14 4 -16 8 -3 9 -181
136 -247 177 -9 6 -18 12 -21 15 -3 3 -36 27 -73 54 l-68 47 69 47 c38 26 115
80 173 120 57 41 199 141 314 222 116 82 216 149 223 149 8 1 48 -23 90 -51z
m-921 -549 c6 -6 21 -16 32 -23 11 -6 142 -96 291 -201 404 -284 433 -305 453
-320 9 -8 19 -15 21 -15 3 0 97 -65 209 -144 113 -80 215 -149 225 -155 11 -6
26 -17 34 -24 7 -7 36 -29 65 -48 28 -19 49 -40 45 -45 -7 -10 -339 -244 -347
-244 -4 0 -207 141 -215 150 -3 3 -12 10 -21 15 -27 16 -190 129 -203 140 -6
6 -25 19 -41 31 -102 71 -159 110 -173 119 -10 6 -19 13 -22 16 -3 3 -48 35
-100 70 -216 149 -435 304 -438 311 -2 5 -10 8 -17 8 -7 0 -15 3 -17 8 -1 4
-36 29 -76 56 -40 28 -71 53 -70 58 2 4 55 43 118 87 63 44 122 86 130 94 8 8
26 20 40 27 13 7 31 19 38 27 16 16 25 16 39 2z m-758 -649 c5 0 11 -4 13 -8
2 -4 32 -28 68 -52 36 -25 67 -47 70 -50 3 -3 32 -23 65 -46 33 -22 218 -152
412 -287 194 -136 357 -247 363 -247 11 0 182 117 351 239 31 23 62 41 68 41
10 0 168 -105 181 -120 3 -3 21 -16 40 -28 38 -23 80 -56 80 -64 0 -3 -33 -27
-72 -54 -40 -27 -75 -52 -78 -55 -3 -3 -54 -39 -115 -81 -60 -42 -200 -139
-310 -216 l-200 -140 -74 52 c-41 28 -82 56 -90 63 -9 7 -90 64 -181 127 -91
64 -172 120 -180 126 -233 163 -344 241 -380 265 -25 17 -51 35 -60 42 -8 7
-64 47 -125 89 -60 42 -136 95 -168 118 -33 22 -66 46 -75 51 -9 6 -29 20 -44
31 l-27 22 47 30 c40 27 213 148 292 204 23 17 25 16 72 -17 26 -19 52 -35 57
-35z"/>
<path d="M563 1115 c-29 -7 -53 -11 -53 -9 0 9 -146 -59 -182 -85 -112 -79
-169 -191 -173 -340 -8 -293 212 -475 569 -473 39 0 85 3 101 6 17 3 45 8 64
11 89 15 211 74 264 127 16 15 32 28 35 28 11 0 42 59 34 64 -65 39 -253 136
-264 136 -5 0 -27 -17 -49 -39 -50 -48 -114 -70 -199 -67 -123 5 -196 70 -204
182 -5 81 37 155 109 187 96 43 219 22 291 -49 l42 -41 113 59 c127 66 159 85
159 96 -1 26 -119 125 -185 156 -133 61 -337 83 -472 51z"/>
<path d="M3325 1113 c-214 -48 -335 -152 -383 -328 -41 -155 -2 -315 105 -422
205 -205 666 -208 888 -7 32 29 70 87 59 91 -5 2 -66 34 -137 71 l-127 68 -45
-43 c-54 -51 -116 -72 -202 -68 -75 3 -125 27 -167 79 -29 35 -31 44 -31 115
0 68 4 80 29 113 82 108 274 111 376 5 l34 -35 56 31 c30 17 84 45 120 63 72
35 112 63 93 64 -7 0 -13 6 -13 13 0 7 -17 29 -37 48 -42 39 -133 103 -133 94
0 -3 -14 2 -30 10 -97 50 -320 69 -455 38z"/>
<path d="M1339 1100 l-55 -5 1 -135 c0 -74 -4 -141 -9 -147 -4 -7 -5 -13 0
-13 5 0 9 -88 9 -195 0 -107 -4 -195 -8 -195 -4 0 -4 -8 1 -17 4 -10 7 -48 6
-85 -1 -38 3 -68 7 -69 5 0 72 -1 149 -1 77 0 151 1 165 1 l25 1 0 429 0 430
-117 3 c-65 2 -143 1 -174 -2z"/>
<path d="M1794 1102 l-41 -3 0 -430 c0 -384 2 -429 16 -430 89 -5 290 -3 304
4 16 8 18 25 17 205 -1 108 -1 210 -1 227 1 28 9 22 125 -100 68 -72 170 -177
227 -235 l104 -106 145 2 c80 2 147 3 150 3 3 1 5 195 5 432 l-1 432 -97 -1
c-53 0 -128 -1 -167 -1 l-70 -1 0 -207 0 -208 -52 56 c-29 30 -109 115 -178
189 -69 74 -133 142 -142 152 -15 15 -36 18 -125 19 -60 0 -124 1 -143 2 -19
1 -53 1 -76 -1z"/>
<path d="M4008 1102 l-88 -3 38 -57 c20 -31 40 -58 45 -60 4 -2 7 -10 7 -17 0
-7 3 -15 8 -17 4 -2 71 -99 150 -216 l142 -213 0 -139 c0 -117 2 -140 15 -141
8 0 78 -1 155 -1 77 0 148 1 158 1 17 1 18 13 18 140 l1 140 79 119 c43 66
103 154 132 196 28 43 52 81 52 86 0 5 4 10 8 12 5 2 26 30 47 63 22 33 43 62
47 63 5 2 8 10 8 17 0 7 6 16 13 18 6 3 -51 6 -128 7 -183 2 -247 2 -250 -2
-1 -2 -35 -61 -76 -133 -40 -71 -76 -132 -80 -135 -3 -3 -9 -14 -13 -25 -7
-19 -8 -19 -25 3 -9 13 -26 40 -36 60 -11 21 -27 48 -36 62 -19 29 -68 115
-83 147 -6 13 -15 23 -21 24 -40 3 -215 3 -287 1z"/>
</g>
</svg>
